PathFileType	3	(X/Y/Z)	C:\Users\koon_\Desktop\
DataRate	CameraRate	NumFrames	NumMarkers	Units	OrigDataRate	OrigDataStartFrame	OrigNumFrames
100.0	100.0	14	27	mm	100.0	1	3999	
Frame#	Time	get:LFHD			get:RFHD			get:LBHD			get:RBHD			get:C7			get:T10			get:CLAV			get:STRN			get:RBAK			get:LSHO			get:LUPA			get:LELB			get:LFRA			get:LWRA			get:LWRB			get:LFIN			get:RSHO			get:RUPA			get:RELB			get:RFRA			get:RWRA			get:RWRB			get:RFIN			get:LASI			get:RASI			get:LPSI			get:RPSI			
		X1	Y1	Z1	X2	Y2	Z2	X3	Y3	Z3	X4	Y4	Z4	X5	Y5	Z5	X6	Y6	Z6	X7	Y7	Z7	X8	Y8	Z8	X9	Y9	Z9	X10	Y10	Z10	X11	Y11	Z11	X12	Y12	Z12	X13	Y13	Z13	X14	Y14	Z14	X15	Y15	Z15	X16	Y16	Z16	X17	Y17	Z17	X18	Y18	Z18	X19	Y19	Z19	X20	Y20	Z20	X21	Y21	Z21	X22	Y22	Z22	X23	Y23	Z23	X24	Y24	Z24	X25	Y25	Z25	X26	Y26	Z26	X27	Y27	Z27	
1	0	121.10689	1554.4365	-98.387474	-38.172806	1572.1595	-103.89553	115.39003	1544.2921	-223.1624	-8.6628523	1567.9331	-243.01015	15.504004	1372.9226	-259.24399	-12.638164	1115.4308	-302.84674	12.358058	1295.36	-84.018295	6.57196	1105.6914	-43.298351	-76.996025	1315.0032	-287.72324	181.66977	1338.6775	-182.67444	228.11446	1188.4656	-175.44716	227.71014	1005.7008	-201.76555	205.41003	910.15625	-119.08546	175.19037	815.23047	-104.9856	232.72224	805.81287	-143.22955	222.16345	729.61652	-98.026108	-139.49084	1376.7019	-172.28395	-233.82486	1167.9041	-142.27008	-245.61873	1056.5802	-178.86537	-234.28963	998.16663	-88.432465	-213.59972	846.08643	-47.656544	-267.66864	842.63739	-98.004784	-258.78845	781.84106	-28.770458	120.77118	926.8526	-106.54364	-158.27611	918.14667	-103.14973	32.245609	954.88727	-308.02933	-78.682549	946.21478	-304.0191
2	0.01	119.95993	1555.1041	-98.496193	-39.380894	1572.0621	-103.87695	114.17609	1544.7949	-223.29158	-9.993	1567.8635	-243.0563	15.003178	1373.0184	-259.164	-12.593936	1115.5146	-302.81915	12.100496	1295.415	-83.927292	6.7121196	1105.7228	-43.312336	-77.348007	1314.9419	-287.66968	181.27365	1339.2542	-182.67642	228.11526	1189.2108	-175.45853	228.09004	1006.5085	-201.88046	206.24118	910.77325	-119.40101	176.31207	815.67804	-105.51908	233.76863	806.5296	-143.90938	223.44006	730.09821	-98.95166	-139.96638	1376.4266	-172.21234	-233.9664	1167.5391	-142.25099	-245.59846	1056.1748	-178.79443	-234.22972	997.88055	-88.351486	-213.16537	845.88751	-47.395466	-267.24826	842.34375	-97.767563	-258.60153	781.85236	-29.041807	121.03783	926.87537	-106.65091	-158.03647	918.15381	-103.19788	32.448818	954.9306	-308.0784	-78.480423	946.27631	-304.06952
3	0.02	118.69916	1555.7899	-98.647751	-40.808689	1572.0131	-103.93732	112.86969	1545.3436	-223.43463	-11.408798	1567.8223	-243.18491	14.452191	1373.1437	-259.12604	-12.554938	1115.6368	-302.95038	10.945336	1295.416	-83.868935	6.0389514	1105.7358	-43.229496	-77.734818	1314.8479	-287.65021	180.79208	1339.8698	-182.62904	228.07069	1189.9513	-175.44516	228.46539	1007.3914	-201.94482	207.13614	911.44745	-119.57444	177.52817	816.20795	-105.90733	234.93781	807.35693	-144.45418	224.81529	730.65778	-99.759331	-140.47916	1376.145	-172.09911	-234.12651	1167.146	-142.24005	-245.57813	1055.7288	-178.71164	-234.11063	997.54895	-88.236259	-212.80768	845.64014	-47.020847	-266.77112	841.68707	-96.35881	-257.75211	781.32129	-27.985453	121.29758	926.8902	-106.81263	-157.74469	918.13776	-103.28347	32.633186	954.9715	-308.21729	-78.250198	946.26318	-304.11765
4	0.03	117.33872	1556.4614	-98.819473	-42.267624	1571.8876	-104.05656	111.45757	1545.8867	-223.60513	-12.976109	1567.7112	-243.29645	13.906843	1373.3262	-259.16034	-12.450002	1115.6273	-302.81058	10.598902	1295.496	-83.966469	6.177299	1105.7866	-43.396061	-78.190239	1314.7144	-287.52481	180.31984	1340.5924	-182.59581	228.04784	1190.7858	-175.32121	228.93285	1008.2797	-201.89543	208.04752	912.11652	-119.75833	178.81903	816.75037	-106.25852	236.26147	808.21783	-144.86488	226.40778	731.26642	-100.45594	-141.04024	1375.8206	-171.97028	-234.29175	1166.6748	-142.22752	-245.52974	1055.2078	-178.7095	-234.01569	997.12305	-88.209053	-212.3968	845.30969	-46.835846	-266.4306	841.42682	-97.171486	-257.53079	781.15002	-28.445999	121.63193	926.88354	-106.97849	-157.41797	918.1524	-103.27643	32.861378	955.03638	-308.28815	-78.011078	946.28009	-304.15808
5	0.04	115.9146	1557.2109	-98.983147	-43.882851	1571.7776	-104.07594	109.89936	1546.4843	-223.7547	-14.645177	1567.6448	-243.30968	13.268319	1373.3822	-258.98999	-12.354465	1115.7175	-302.84723	10.327313	1295.5903	-83.888268	6.4005971	1105.868	-43.307068	-78.661484	1314.6086	-287.46527	179.81981	1341.275	-182.50568	228.00232	1191.646	-175.14297	229.44461	1009.1874	-201.81906	209.08961	912.85712	-119.76623	180.25296	817.30725	-106.50409	237.58826	809.11365	-145.25932	228.14211	731.99707	-101.01596	-141.64027	1375.4656	-171.91234	-234.4474	1166.1241	-142.20097	-245.43788	1054.6782	-178.70436	-233.9196	996.66693	-88.164131	-211.97237	844.92584	-46.700954	-265.93811	840.77985	-96.701294	-257.00348	780.67078	-28.29233	121.98022	926.89587	-107.15041	-157.0672	918.15967	-103.27581	33.063248	955.0929	-308.4101	-77.778221	946.26727	-304.14688
6	0.05	114.36593	1557.9487	-99.14946	-45.611988	1571.6267	-104.16705	108.30168	1547.12	-223.87695	-16.452818	1567.538	-243.33949	12.624719	1373.5414	-259.01605	-12.228154	1115.7615	-302.78952	9.9686947	1295.6539	-83.82386	6.6089454	1105.9067	-43.378799	-79.108078	1314.468	-287.40823	179.25838	1342.0314	-182.4068	227.91945	1192.5322	-174.95067	230.02931	1010.1556	-201.57021	210.11671	913.64954	-119.75797	181.78441	817.90961	-106.5556	239.09473	810.0412	-145.43289	230.01613	732.77979	-101.38717	-142.2155	1375.1012	-171.82231	-234.55652	1165.571	-142.16719	-245.36507	1054.1354	-178.79662	-233.8064	996.12036	-88.175842	-211.5459	844.49615	-46.60659	-265.41901	840.07458	-96.035767	-256.22549	779.98157	-27.558651	122.33099	926.92279	-107.34061	-156.71613	918.1402	-103.30944	33.329517	955.10669	-308.47461	-77.55043	946.32379	-304.23846
7	0.06	112.74288	1558.7083	-99.337555	-47.3843	1571.4552	-104.18266	106.55106	1547.7778	-224.05263	-18.289547	1567.4608	-243.42664	11.976572	1373.6893	-258.95663	-12.084609	1115.8456	-302.81696	9.5722628	1295.7355	-83.786385	6.7828031	1105.9763	-43.511322	-79.568336	1314.277	-287.27682	178.68481	1342.7631	-182.30685	227.82394	1193.5034	-174.67172	230.6748	1011.0912	-201.36876	211.22809	914.41681	-119.67109	183.34222	818.53815	-106.60378	240.63672	810.99854	-145.5748	232.02025	733.61395	-101.59219	-142.86479	1374.7285	-171.70683	-234.73715	1165.0017	-142.16606	-245.23563	1053.5613	-178.95078	-233.65872	995.54504	-88.226479	-211.16914	843.91791	-46.551895	-264.94797	839.42316	-96.077728	-255.71385	779.37769	-27.63797	122.70276	926.91919	-107.51285	-156.30428	918.09802	-103.38055	33.580959	955.17859	-308.57062	-77.288322	946.34113	-304.27603
8	0.07	110.99649	1559.5148	-99.560417	-49.147236	1571.2434	-104.13836	104.71227	1548.4877	-224.1989	-20.253119	1567.6659	-243.66891	11.298289	1373.8013	-258.88181	-11.898976	1115.8766	-302.73306	9.1483164	1295.8086	-83.76664	6.9969559	1106.0198	-43.451977	-80.065971	1314.1052	-287.17957	178.11142	1343.5117	-182.1846	227.74812	1194.3737	-174.48775	231.33449	1012.0852	-201.09117	212.33185	915.22046	-119.47088	184.98868	819.2132	-106.50714	242.28427	812.04004	-145.50642	234.11603	734.56091	-101.64675	-143.54228	1374.2986	-171.66641	-234.75813	1164.3484	-142.09132	-245.07962	1052.8933	-178.97713	-233.4825	994.88898	-88.269447	-210.71973	843.35107	-46.620823	-264.45007	838.71802	-96.20462	-255.16078	778.69244	-27.781479	123.12862	926.90845	-107.71468	-155.9447	918.09802	-103.3772	33.87022	955.1983	-308.66226	-77.001686	946.35559	-304.35751
9	0.08	109.22002	1560.281	-99.67308	-47.442097	1570.4377	-99.527206	102.75944	1549.2394	-224.35271	-22.330683	1567.5864	-243.65038	10.601139	1373.9404	-258.85504	-11.747141	1115.9696	-302.84967	8.7055607	1295.8306	-83.760101	7.1860428	1106.0769	-43.531013	-80.585327	1313.9567	-287.18665	177.47415	1344.2808	-182.07622	227.67854	1195.3322	-174.1956	232.05812	1013.0725	-200.78059	213.54843	916.117	-119.24296	186.68184	819.92902	-106.32209	243.96666	813.05304	-145.35159	236.23724	735.55286	-101.51781	-144.25497	1373.8818	-171.62607	-234.87013	1163.6495	-142.09793	-244.32384	1052.3009	-179.33675	-233.23976	994.20966	-88.261642	-210.26308	842.66711	-46.811649	-263.97116	837.94409	-96.413376	-254.89145	778.03052	-28.604605	123.54115	926.935	-107.86552	-155.49933	918.10522	-103.32604	34.183315	955.22443	-308.7738	-76.661514	946.39185	-304.42679
10	0.09	107.35142	1561.0941	-99.84568	-53.466599	1570.7727	-104.19823	100.7849	1549.9242	-224.48375	-24.485586	1567.1549	-243.41255	9.9002934	1374.0823	-258.83325	-11.569432	1115.9565	-302.82593	8.2299719	1295.8776	-83.808601	7.3794131	1106.0811	-43.640198	-81.120628	1313.7693	-287.21063	176.85829	1345.0658	-181.96201	227.60228	1196.3043	-173.96323	232.85201	1014.0414	-200.43678	214.7373	917.00891	-118.98228	188.4205	820.71576	-106.00095	245.73259	814.16595	-145.0869	238.48483	736.64746	-101.20313	-144.9688	1373.4059	-171.63306	-234.97749	1162.9525	-142.09053	-244.19901	1051.5488	-179.31848	-233.0172	993.43597	-88.408585	-209.77681	841.87781	-46.942638	-263.47681	837.14075	-96.671402	-254.34563	777.21289	-28.957645	124.01821	926.95154	-108.0508	-155.05627	918.03619	-103.42819	34.542496	955.25085	-308.86932	-76.316154	946.40747	-304.52841
11	0.1	105.37473	1561.8837	-100.01498	-51.484398	1569.8022	-99.456718	98.711922	1550.7078	-224.60382	-26.671724	1567.0265	-243.35381	9.1735067	1374.2697	-258.83987	-11.324514	1116.0004	-302.82404	7.7684512	1295.9015	-83.794083	7.5367565	1106.1129	-43.822594	-81.615211	1313.4987	-287.10162	176.25224	1345.8384	-181.79797	227.48125	1197.2788	-173.66525	233.68721	1015.0717	-200.08484	215.95908	917.95502	-118.56551	190.16402	821.57507	-105.61259	247.49541	815.3042	-144.69063	240.67249	737.80182	-100.76398	-145.70662	1372.9146	-171.59673	-234.97699	1162.1595	-142.05775	-244.46599	1050.7008	-179.03169	-232.75629	992.6507	-88.48629	-209.26941	841.05914	-47.294868	-262.89008	836.30688	-96.982971	-253.75334	776.30762	-29.313799	124.45828	926.91986	-108.18997	-154.59579	918.05896	-103.37885	34.934673	955.27869	-308.94156	-75.964821	946.38831	-304.54837
12	0.11	103.3558	1562.673	-100.11706	-53.551067	1569.4594	-99.279602	96.578278	1551.4729	-224.68629	-28.964273	1566.963	-243.34749	8.4178867	1374.319	-258.7197	-11.11584	1116.0408	-302.82556	7.2871728	1295.9347	-83.743134	7.7287374	1106.1637	-43.943031	-82.108147	1313.2792	-287.13309	175.57674	1346.6669	-181.68816	227.4191	1198.321	-173.39096	234.50183	1016.117	-199.73149	217.19966	918.95593	-118.1235	191.94481	822.44513	-105.22582	249.23686	816.43323	-144.30453	242.93611	739.04291	-100.17124	-146.4704	1372.3755	-171.66188	-235.15459	1161.4386	-142.19171	-244.23999	1049.9673	-179.26929	-232.49857	991.75873	-88.651924	-208.79269	840.20691	-47.706226	-262.30518	835.38232	-97.419014	-252.93127	775.16986	-29.338232	124.88007	926.93158	-108.37984	-154.20633	918.26581	-102.89057	35.292576	955.31213	-308.98407	-75.582535	946.39484	-304.6384
13	0.12	101.33498	1563.4817	-100.2067	-55.622112	1569.0575	-99.092789	94.38118	1552.2281	-224.81438	-31.313459	1566.7524	-243.17578	7.6504922	1374.4576	-258.7789	-10.845872	1115.974	-302.74408	6.7774272	1295.9418	-83.753593	7.8756399	1106.1406	-44.019096	-82.627541	1313.0746	-287.18945	174.89926	1347.5203	-181.57529	227.30086	1199.3459	-173.12857	235.38423	1017.2208	-199.3275	218.45403	920.08032	-117.71744	193.69424	823.39972	-104.68825	251.10588	817.68103	-143.66953	245.21002	740.31769	-99.480965	-147.21616	1371.8448	-171.68271	-235.09972	1160.6892	-142.2209	-243.94806	1049.1345	-179.32114	-232.21503	990.88245	-88.79171	-208.27846	839.24457	-47.978882	-261.80051	834.46381	-97.999313	-252.38144	774.13489	-30.039156	125.35532	926.95697	-108.53916	-153.87825	918.83295	-101.67603	35.68063	955.3194	-309.05557	-75.188637	946.37836	-304.66821
14	0.13	99.214462	1564.2711	-100.29	-57.719364	1568.6094	-98.82283	92.096169	1553.0481	-224.89314	-33.732861	1566.5938	-243.06705	6.8790054	1374.5822	-258.81168	-10.611492	1116.1016	-302.92117	6.1987352	1295.9835	-83.921478	8.0182257	1106.175	-44.240028	-83.160789	1312.8542	-287.29855	174.18074	1348.3453	-181.44531	227.27422	1200.4198	-172.89932	236.27669	1018.2936	-198.91852	219.69154	921.1828	-117.21244	195.47032	824.4696	-103.99264	252.90846	818.99146	-142.96709	247.43811	741.69946	-98.709686	-148.01181	1371.262	-171.76196	-235.16583	1159.8085	-142.23001	-243.23029	1048.3927	-179.70917	-231.94791	989.94775	-88.966476	-207.73656	838.27118	-48.677891	-261.14883	833.49536	-98.517395	-251.74557	773.03162	-30.701895	125.87624	926.97241	-108.66856	-153.40031	918.80536	-101.72757	36.055088	955.31335	-309.15384	-74.79435	946.34491	-304.73526
